<svg xmlns:mydata="http://www.w3.org/2000/svg" mydata:contrastcolor="ffffff" mydata:template="BlackAndHighlightColorHex1" mydata:presentation="2.5" mydata:layouttype="undefined" mydata:specialfontid="undefined" mydata:id1="992" mydata:id2="198" mydata:companyname="WeLove" mydata:companytagline="" version="1.1" xmlns="http://www.w3.org/2000/svg" xmlns:xlink="http://www.w3.org/1999/xlink" viewBox="122.3836593523906 115.00000000000003 305.23268129521875 239.99999999999997" class="watermark-logo"><g fill="#cd545b" fill-rule="nonzero" stroke="none" stroke-width="1" stroke-linecap="butt" stroke-linejoin="miter" stroke-miterlimit="10" stroke-dasharray="" stroke-dashoffset="0" font-family="none" font-weight="none" font-size="none" text-anchor="none" style="mix-blend-mode: normal"><g data-paper-data="{&quot;isGlobalGroup&quot;:true,&quot;bounds&quot;:{&quot;x&quot;:122.3836593523906,&quot;y&quot;:115.00000000000003,&quot;width&quot;:305.23268129521875,&quot;height&quot;:239.99999999999997}}"><g data-paper-data="{&quot;isPrimaryText&quot;:true}"><path d="M168.96561,311.1082c0.19234,0 0.2885,0 0.48084,0c1.15401,3.94287 2.40419,7.78957 3.46203,11.73244c2.11569,8.27041 4.1352,16.54082 6.05856,24.81123c0.57701,2.40419 2.01952,3.65437 4.23137,4.32754c4.71221,1.44251 9.13592,0.67317 13.36729,-1.44251c0.76934,-0.38467 1.53868,-1.25018 1.73102,-2.01952c1.25018,-5.09688 2.30802,-10.19376 3.65437,-15.19447c4.1352,-14.71364 8.84741,-29.23494 15.96381,-42.79456c2.01952,-3.75053 4.71221,-7.1164 7.30873,-10.57843c1.63485,-2.21185 4.1352,-3.36586 6.8279,-4.03904c1.44251,-0.38467 2.78886,-0.86551 4.03904,-1.53868c1.82718,-1.05784 1.82718,-2.59652 0.09617,-3.75053c-0.86551,-0.57701 -1.82718,-0.96168 -2.78886,-1.15401c-7.4049,-1.34635 -14.04046,0.67317 -19.90668,5.00071c-4.90455,3.5582 -8.36658,8.46274 -10.86693,13.9443c-3.2697,6.92406 -6.25089,14.13663 -9.13592,21.25303c-1.63485,4.1352 -2.88503,8.27041 -4.42371,12.50178c-0.19234,-0.19234 -0.2885,-0.2885 -0.2885,-0.38467c-2.11569,-6.92406 -4.23137,-13.84813 -6.44323,-20.77219c-1.44251,-4.51987 -2.98119,-9.13592 -4.51987,-13.65579c-0.2885,-0.86551 -1.15401,-1.53868 -1.25018,-2.40419c-0.19234,-1.73102 -1.25018,-2.50036 -2.69269,-2.98119c-3.65437,-1.34635 -7.30873,-1.34635 -10.9631,0.09617c-1.25018,0.48084 -2.11569,1.34635 -2.50036,2.78886c-3.46203,12.30945 -6.92406,24.52273 -10.3861,36.83217c-0.76934,2.59652 -1.44251,5.28922 -2.11569,7.88574c-1.25018,-4.32754 -2.40419,-8.65508 -3.2697,-12.98262c-2.01952,-10.19376 -4.03904,-20.38752 -6.05856,-30.67745c-0.2885,-1.34635 0,-2.98119 -1.63485,-4.03904c-2.98119,-1.82718 -10.28993,-1.82718 -13.17495,0.19234c-0.96168,0.76934 -1.53868,1.63485 -1.34635,2.98119c0.76934,4.51987 1.44251,9.13592 2.40419,13.65579c2.01952,9.80909 4.03904,19.52201 6.34706,29.23494c1.73102,7.21257 3.8467,14.2328 5.86622,21.44536c0.57701,1.82718 1.53868,3.2697 3.46203,3.94287c3.2697,1.15401 6.63556,2.01952 10.09759,1.53868c2.69269,-0.2885 5.48155,-0.86551 6.53939,-3.94287c1.92335,-5.57772 3.94287,-11.15544 5.57772,-16.82932c2.21185,-7.59724 4.1352,-15.29064 6.25089,-22.98405z" data-paper-data="{&quot;glyphName&quot;:&quot;W&quot;,&quot;glyphIndex&quot;:0,&quot;firstGlyphOfWord&quot;:true,&quot;word&quot;:1}" style="fill: rgb(255, 255, 255);"></path><path d="M228.58949,333.51524c3.75053,-0.2885 6.8279,-0.38467 9.80909,-0.76934c5.19305,-0.67317 10.19376,-2.01952 14.71364,-4.80838c5.67389,-3.46203 6.92406,-8.55891 6.05856,-14.61747c-0.86551,-5.77005 -4.71221,-8.55891 -10.00143,-9.90526c-2.21185,-0.48084 -4.42371,-0.57701 -6.73173,-1.05784c-10.19376,-1.92335 -23.75339,4.32754 -27.60009,15.48298c-1.63485,4.51987 -2.40419,9.13592 -2.21185,14.04046c0.57701,10.28993 5.86622,16.82932 15.86765,19.13734c8.36658,1.82718 16.63699,0.76934 24.81123,-1.34635c0.67317,-0.19234 1.44251,-0.57701 2.01952,-1.05784c1.73102,-1.25018 1.73102,-2.88503 -0.19234,-3.75053c-1.73102,-0.86551 -3.65437,-1.53868 -5.57772,-1.53868c-2.98119,0 -5.96239,0.57701 -8.94358,1.05784c-4.51987,0.67317 -7.98191,-0.76934 -10.00143,-4.90455c-0.86551,-1.73102 -1.25018,-3.75053 -2.01952,-5.96239zM228.87799,325.91801c1.15401,-5.86622 2.59652,-10.86693 7.1164,-14.32897c0.09617,-0.19234 0.2885,-0.2885 0.48084,-0.38467c4.32754,-2.21185 5.86622,-1.73102 6.63556,2.78886c1.05784,6.53939 -1.25018,10.09759 -7.1164,11.2516c-2.21185,0.38467 -4.42371,0.38467 -7.1164,0.67317z" data-paper-data="{&quot;glyphName&quot;:&quot;e&quot;,&quot;glyphIndex&quot;:1,&quot;word&quot;:1}" style="fill: rgb(255, 255, 255);"></path><path d="M276.09626,316.68592h-0.09617c0.19234,-9.90526 0.38467,-19.71435 0.57701,-29.61961c0,-3.2697 -0.76934,-4.32754 -3.75053,-5.09688c-3.07736,-0.76934 -6.05856,-0.76934 -9.03975,0.2885c-2.50036,0.76934 -3.07736,1.63485 -3.17353,4.23137c-0.38467,20.19519 -0.76934,40.39037 -1.15401,60.58556c0,2.59652 0.67317,3.65437 3.2697,4.42371c3.17353,0.96168 6.25089,0.96168 9.32825,0c2.59652,-0.86551 3.2697,-1.73102 3.36586,-4.51987c0.19234,-10.09759 0.38467,-20.19519 0.67317,-30.29278z" data-paper-data="{&quot;glyphName&quot;:&quot;l&quot;,&quot;glyphIndex&quot;:2,&quot;word&quot;:1}" style="fill: rgb(255, 255, 255);"></path><path d="M306.58137,352.36408c5.19305,0.57701 10.28993,-0.86551 15.38681,-2.59652c3.94287,-1.34635 6.73173,-3.94287 8.36658,-7.6934c0.86551,-1.82718 1.63485,-3.8467 2.11569,-5.77005c1.73102,-7.21257 0.57701,-14.2328 -1.73102,-21.15686c-1.92335,-5.96239 -5.96239,-9.52059 -12.02094,-11.15544c-4.71221,-1.15401 -9.42442,-1.25018 -14.2328,-1.25018c-8.84741,0 -16.92549,4.71221 -20.38752,13.55962c-1.63485,4.42371 -2.98119,8.94358 -3.5582,13.75196c-0.86551,8.46274 4.23137,17.21399 12.11711,20.29135c4.42371,1.73102 9.03975,2.21185 13.9443,2.01952zM296.48378,330.63022c0.57701,-5.48155 2.21185,-11.63627 5.67389,-17.21399c2.01952,-3.17353 5.38538,-3.2697 8.36658,-2.88503c0.57701,0.09617 1.15401,0.57701 1.63485,1.05784c0.48084,0.38467 0.86551,0.96168 1.15401,1.53868c4.1352,8.94358 5.67389,17.98333 1.44251,27.31159c-1.15401,2.59652 -2.88503,4.23137 -5.96239,4.23137c-0.86551,0 -1.73102,0.2885 -2.59652,0.38467c-2.30802,0.2885 -4.23137,-0.57701 -5.77005,-2.30802c-2.40419,-2.88503 -4.03904,-7.4049 -3.94287,-12.11711z" data-paper-data="{&quot;glyphName&quot;:&quot;o&quot;,&quot;glyphIndex&quot;:3,&quot;word&quot;:1}" style="fill: rgb(255, 255, 255);"></path><path d="M356.3,328.70687c-0.38467,-1.25018 -0.76934,-2.11569 -1.05784,-2.98119c-1.92335,-5.67389 -3.8467,-11.2516 -5.67389,-16.92549c-0.57701,-1.63485 -1.34635,-2.69269 -2.88503,-3.2697c-3.75053,-1.44251 -7.50107,-1.44251 -11.15544,0.19234c-2.21185,0.96168 -2.59652,2.01952 -1.82718,4.32754c3.07736,9.13592 5.96239,18.17567 9.23209,27.11925c1.25018,3.5582 2.98119,7.02023 4.71221,10.3861c0.67317,1.15401 1.73102,2.40419 2.88503,2.98119c3.46203,1.73102 7.1164,1.53868 10.77077,0.48084c3.07736,-0.86551 4.03904,-3.46203 5.00071,-5.96239c3.65437,-9.52059 7.78957,-18.84884 12.59795,-27.88859c3.75053,-7.1164 8.65508,-13.17495 14.42513,-18.65651c1.63485,-1.44251 3.36586,-2.50036 5.48155,-2.78886c1.53868,-0.19234 3.17353,-0.48084 4.71221,-0.86551c2.78886,-0.76934 4.23137,-1.92335 4.03904,-3.2697c-0.48084,-2.01952 -2.30802,-2.40419 -3.94287,-2.88503c-3.46203,-1.15401 -6.8279,-0.57701 -10.28993,0c-4.42371,0.86551 -8.84741,1.92335 -12.30945,4.90455c-6.05856,5.19305 -11.82861,10.86693 -15.57914,18.17567c-2.59652,4.71221 -5.09688,9.52059 -7.59724,14.32897c-0.38467,0.76934 -0.86551,1.53868 -1.53868,2.59652z" data-paper-data="{&quot;glyphName&quot;:&quot;v&quot;,&quot;glyphIndex&quot;:4,&quot;word&quot;:1}" style="fill: rgb(255, 255, 255);"></path><path d="M396.78654,333.51524c3.75053,-0.2885 6.8279,-0.38467 9.80909,-0.76934c5.19305,-0.67317 10.19376,-2.01952 14.71364,-4.80838c5.67389,-3.46203 6.92406,-8.55891 6.05856,-14.61747c-0.86551,-5.77005 -4.71221,-8.55891 -10.00143,-9.90526c-2.21185,-0.48084 -4.42371,-0.57701 -6.73173,-1.05784c-10.19376,-1.92335 -23.75339,4.32754 -27.60009,15.48298c-1.63485,4.51987 -2.40419,9.13592 -2.21185,14.04046c0.57701,10.28993 5.86622,16.82932 15.86765,19.13734c8.36658,1.82718 16.63699,0.76934 24.81123,-1.34635c0.67317,-0.19234 1.44251,-0.57701 2.01952,-1.05784c1.73102,-1.25018 1.73102,-2.88503 -0.19234,-3.75053c-1.73102,-0.86551 -3.65437,-1.53868 -5.57772,-1.53868c-2.98119,0 -5.96239,0.57701 -8.94358,1.05784c-4.51987,0.67317 -7.98191,-0.76934 -10.00143,-4.90455c-0.86551,-1.73102 -1.25018,-3.75053 -2.01952,-5.96239zM397.07504,325.91801c1.15401,-5.86622 2.59652,-10.86693 7.1164,-14.32897c0.09617,-0.19234 0.2885,-0.2885 0.48084,-0.38467c4.32754,-2.21185 5.86622,-1.73102 6.63556,2.78886c1.05784,6.53939 -1.25018,10.09759 -7.1164,11.2516c-2.21185,0.38467 -4.42371,0.38467 -7.1164,0.67317z" data-paper-data="{&quot;glyphName&quot;:&quot;e&quot;,&quot;glyphIndex&quot;:5,&quot;lastGlyphOfWord&quot;:true,&quot;word&quot;:1}" style="fill: rgb(255, 255, 255);"></path></g><g data-paper-data="{&quot;isIcon&quot;:&quot;true&quot;,&quot;iconType&quot;:&quot;icon&quot;,&quot;rawIconId&quot;:&quot;4bac8182-cb42-4db3-8d53-dcc8327fe1dc&quot;,&quot;selectedEffects&quot;:{&quot;container&quot;:&quot;&quot;,&quot;transformation&quot;:&quot;&quot;,&quot;pattern&quot;:&quot;&quot;},&quot;isDetailed&quot;:false,&quot;fillRule&quot;:&quot;nonzero&quot;,&quot;bounds&quot;:{&quot;x&quot;:191.35429687844209,&quot;y&quot;:115.00000000000003,&quot;width&quot;:167.29140624311583,&quot;height&quot;:122.75051265311276},&quot;iconStyle&quot;:&quot;standalone&quot;,&quot;suitableAsStandaloneIcon&quot;:true}"><path d="M304.81084,199.87321l-30.68763,-84.87321l-10.52148,28.75869l31.38906,86.62679zM212.74796,115h-21.39366l39.80624,122.7505h21.04294zM297.79652,237.75051h21.04294l39.80624,-122.7505h-21.39366zM257.99029,199.5225c6.6636,0 12.27505,-5.61146 12.27505,-12.27505c0,-6.83896 -5.61146,-12.27505 -12.27505,-12.27505c-6.83896,0 -12.27505,5.43609 -12.27505,12.27505c0,6.6636 5.43609,12.27505 12.27505,12.27505z" data-paper-data="{&quot;isPathIcon&quot;:true}" style="fill: rgb(255, 255, 255);"></path></g></g></g><g class="watermark-group" style="opacity:0.040000010281801224"><path class="watermark-path" d="M129.52,370.3a11.88,11.88,0,0,1,2.58,5.58,12,12,0,0,1,.11,3,11.81,11.81,0,0,1-.64,2.93,12.34,12.34,0,0,1-1.41,2.72,11.65,11.65,0,0,1-2.13,2.32,12,12,0,0,1-2.64,1.69,13,13,0,0,1-2.91.9,12.47,12.47,0,0,1-3,.12,12.17,12.17,0,0,1-2.93-.64,11.8,11.8,0,0,1-2.72-1.38,12.19,12.19,0,0,1-4-4.79,11.85,11.85,0,0,1-.89-2.92,12.14,12.14,0,0,1-.13-3,11.54,11.54,0,0,1,.64-2.92,11.67,11.67,0,0,1,3.5-5,11.44,11.44,0,0,1,2.67-1.69,11.64,11.64,0,0,1,2.92-.91,10.71,10.71,0,0,1,3-.12,11.68,11.68,0,0,1,5.66,2,11.7,11.7,0,0,1,2.34,2.12m-1.4,8.76a13,13,0,0,1-1.22,2.32,9.68,9.68,0,0,1-1.81,2,7.44,7.44,0,0,1-2.38,1.37,6.17,6.17,0,0,1-5.11-.46,8.73,8.73,0,0,1-3.85-4.58,6.69,6.69,0,0,1-.34-2.66,6.09,6.09,0,0,1,.77-2.47,7.15,7.15,0,0,1,1.75-2.11,9.58,9.58,0,0,1,1.09-.81,8.23,8.23,0,0,1,1.12-.63,8.14,8.14,0,0,1,1.19-.46,12.71,12.71,0,0,1,1.32-.37l2,2.38a12.83,12.83,0,0,0-1.56.17,7.86,7.86,0,0,0-1.23.32,4.5,4.5,0,0,0-1,.49,6.41,6.41,0,0,0-.93.67,4.49,4.49,0,0,0-1.15,1.39,3.87,3.87,0,0,0-.45,1.58,4.12,4.12,0,0,0,.26,1.63,6.11,6.11,0,0,0,2.36,2.82,4.43,4.43,0,0,0,1.57.53,3.91,3.91,0,0,0,1.62-.17,4.71,4.71,0,0,0,1.57-.89,10.5,10.5,0,0,0,.83-.79,5.71,5.71,0,0,0,.65-.93,10.13,10.13,0,0,0,.54-1.14,12.24,12.24,0,0,0,.44-1.49l2,2.33m-14.46,4.55a8.86,8.86,0,0,0,2.78,2.22,9,9,0,0,0,3.29.94,9.15,9.15,0,0,0,3.39-.37,8.68,8.68,0,0,0,3.11-1.69,8.8,8.8,0,0,0,2.22-2.78,9.15,9.15,0,0,0,1-3.29,8.95,8.95,0,0,0-4.83-8.76,9,9,0,0,0-6.73-.57,9,9,0,0,0-5.33,4.47,8.94,8.94,0,0,0-.57,6.71,8.76,8.76,0,0,0,1.7,3.12" style="fill: rgb(255, 255, 255);"></path><path class="watermark-path" d="M147,349c-.48.12-1.09.31-1.82.57a24.37,24.37,0,0,0-2.4,1A28.35,28.35,0,0,0,140,352a20.72,20.72,0,0,0-2.71,1.94c-.7.59-1.28,1.11-1.74,1.57a15.07,15.07,0,0,0-1.1,1.22,4.09,4.09,0,0,0-.59.92,2.32,2.32,0,0,0-.22.64,1.16,1.16,0,0,0,0,.47,1.83,1.83,0,0,0,.18.29,1.15,1.15,0,0,0,1,.37,5.54,5.54,0,0,0,1.51-.38q.87-.35,1.95-.9l2.26-1.18q1.2-.65,2.49-1.29c.87-.44,1.73-.83,2.59-1.17a18.94,18.94,0,0,1,2.6-.81,9.27,9.27,0,0,1,2.46-.29,6.25,6.25,0,0,1,2.24.49,5.12,5.12,0,0,1,1.89,1.47,6.35,6.35,0,0,1,1.41,2.61,6,6,0,0,1,.09,2.6,8.3,8.3,0,0,1-.9,2.52,17.79,17.79,0,0,1-1.62,2.37,23.92,23.92,0,0,1-2,2.15c-.72.67-1.41,1.29-2.09,1.87a33.79,33.79,0,0,1-5.33,3.7,32.29,32.29,0,0,1-4.91,2.28l-3.61-4.3a21.38,21.38,0,0,0,5.39-1.87,27.2,27.2,0,0,0,5.4-3.56,21.59,21.59,0,0,0,2.38-2.27,8.67,8.67,0,0,0,1.18-1.7,2.32,2.32,0,0,0,.27-1.19,1.34,1.34,0,0,0-.28-.74,1.21,1.21,0,0,0-1-.42,4.32,4.32,0,0,0-1.55.34,15.77,15.77,0,0,0-2,.88c-.72.37-1.48.77-2.27,1.21l-2.45,1.3c-.85.45-1.7.85-2.56,1.21a22.37,22.37,0,0,1-2.54.86,10,10,0,0,1-2.43.32,5.76,5.76,0,0,1-2.2-.45,5,5,0,0,1-1.89-1.45,6.12,6.12,0,0,1-1.31-2.41,6,6,0,0,1-.1-2.41,8.28,8.28,0,0,1,.81-2.38,14.06,14.06,0,0,1,1.49-2.24,22.37,22.37,0,0,1,1.85-2.05q1-1,2-1.77c.7-.59,1.44-1.15,2.23-1.7s1.62-1.06,2.44-1.53,1.63-.91,2.43-1.3,1.58-.75,2.3-1L147,349" style="fill: rgb(255, 255, 255);"></path><path class="watermark-path" d="M186.76,337.57l-10.6-12.63,3.92,18.24-4.66,3.91-17.27-7,10.6,12.63-4.86,4.07-15.09-18,6.59-5.54,18.69,7.52-4.15-19.71,6.57-5.52,15.09,18-4.83,4.05" style="fill: rgb(255, 255, 255);"></path><path class="watermark-path" d="M208.84,313.24l-10,8.42,1.16,4.82L194.56,331l-5.68-25.89,5.42-4.55,24.51,10.09-5.42,4.55-4.55-2m-11.23,3.45,6.57-5.52-8.83-3.87,2.26,9.39" style="fill: rgb(255, 255, 255);"></path><path class="watermark-path" d="M227.49,281.38c-.48.12-1.09.31-1.82.57a24.37,24.37,0,0,0-2.4,1,26.11,26.11,0,0,0-2.7,1.47,20.72,20.72,0,0,0-2.71,1.94c-.7.59-1.28,1.11-1.74,1.57a13.39,13.39,0,0,0-1.1,1.22,4.29,4.29,0,0,0-.59.91,2.48,2.48,0,0,0-.22.65,1.16,1.16,0,0,0,0,.47,1.83,1.83,0,0,0,.18.29,1.15,1.15,0,0,0,1,.37,5.54,5.54,0,0,0,1.51-.38q.87-.34,2-.9l2.26-1.18q1.2-.64,2.49-1.29c.87-.44,1.73-.83,2.59-1.17a18.94,18.94,0,0,1,2.6-.81,9.27,9.27,0,0,1,2.46-.29,6.08,6.08,0,0,1,2.24.49,5.09,5.09,0,0,1,1.89,1.46,6.47,6.47,0,0,1,1.41,2.61,6.07,6.07,0,0,1,.09,2.61,8.3,8.3,0,0,1-.9,2.52,16.32,16.32,0,0,1-1.63,2.36,21.41,21.41,0,0,1-2,2.16c-.72.67-1.41,1.29-2.1,1.86a33.36,33.36,0,0,1-5.32,3.71,31.92,31.92,0,0,1-4.92,2.28l-3.6-4.3a21.38,21.38,0,0,0,5.39-1.87,27.2,27.2,0,0,0,5.4-3.56,21.59,21.59,0,0,0,2.38-2.27,8.67,8.67,0,0,0,1.18-1.7A2.32,2.32,0,0,0,231,293a1.34,1.34,0,0,0-.28-.74,1.21,1.21,0,0,0-1-.42,4.32,4.32,0,0,0-1.55.34,16.54,16.54,0,0,0-2,.88c-.71.37-1.47.77-2.26,1.21l-2.46,1.3c-.84.44-1.7.85-2.55,1.21a24.53,24.53,0,0,1-2.54.86A10,10,0,0,1,214,298a5.76,5.76,0,0,1-2.2-.45,5,5,0,0,1-1.89-1.45,6.12,6.12,0,0,1-1.31-2.41,5.78,5.78,0,0,1-.1-2.41,8,8,0,0,1,.81-2.38,14.61,14.61,0,0,1,1.49-2.25,22.26,22.26,0,0,1,1.85-2q1-1,2-1.77c.7-.59,1.44-1.15,2.23-1.7s1.62-1.06,2.44-1.53,1.63-.91,2.43-1.31,1.58-.74,2.3-1l3.5,4.16" style="fill: rgb(255, 255, 255);"></path><path class="watermark-path" d="M261.64,274.74l-6.29-7.5L243,277.61l6.3,7.5-4.86,4.07-15.09-18,4.85-4.08,5.49,6.55L252,263.3l-5.49-6.55,4.86-4.07,15.09,18-4.86,4.08" style="fill: rgb(255, 255, 255);"></path><path class="watermark-path" d="M272.18,265.9l-15.09-18,4.86-4.08,15.09,18-4.86,4.08" style="fill: rgb(255, 255, 255);"></path><path class="watermark-path" d="M299.65,242.85l-22.51-2.18L287.51,253l-4.85,4.08-15.1-18,5.28-4.43,22.56,2.22L285,224.5l4.83-4.06,15.09,18-5.26,4.42" style="fill: rgb(255, 255, 255);"></path><path class="watermark-path" d="M306.68,205.52a31.88,31.88,0,0,1,5.29-3.66,34.48,34.48,0,0,1,5.14-2.35l3.69,4.39a20.77,20.77,0,0,0-2.37.61,20.47,20.47,0,0,0-2.61,1,25.12,25.12,0,0,0-2.76,1.49,23.9,23.9,0,0,0-2.8,2,20.42,20.42,0,0,0-2.8,2.77,12.77,12.77,0,0,0-1.64,2.52,7,7,0,0,0-.68,2.24,6,6,0,0,0,.66,3.64,8.16,8.16,0,0,0,.94,1.38,9.12,9.12,0,0,0,1.08,1.07,6.39,6.39,0,0,0,1.47.91,6.73,6.73,0,0,0,1.88.48,6.54,6.54,0,0,0,2.28-.18,11.67,11.67,0,0,0,2.74-1.07,19.38,19.38,0,0,0,3.18-2.22c.57-.48,1.06-.92,1.46-1.31a14.57,14.57,0,0,0,1-1.13,11.46,11.46,0,0,0,.81-1.05l.74-1.09-1.82-2.17-5.45,4.57-3.31-3.94,10.31-8.65,7.71,9.19a29,29,0,0,1-1.67,2.43q-1,1.26-2.1,2.52c-.74.84-1.5,1.65-2.3,2.44s-1.58,1.5-2.33,2.14a31,31,0,0,1-3.59,2.61,22.55,22.55,0,0,1-3.64,1.83,15.64,15.64,0,0,1-3.63.89,10.72,10.72,0,0,1-3.49-.15,10.45,10.45,0,0,1-3.28-1.33,12.54,12.54,0,0,1-3-2.67,12,12,0,0,1-2.08-3.44,10.45,10.45,0,0,1-.71-3.5,11.14,11.14,0,0,1,.51-3.51,15.72,15.72,0,0,1,1.56-3.43,21.62,21.62,0,0,1,2.42-3.28,30.3,30.3,0,0,1,3.15-3" style="fill: rgb(255, 255, 255);"></path><path class="watermark-path" d="M336.91,211.59l-15.1-18,4.86-4.08,11.79,14,13.13-11,3.31,3.94-18,15.1" style="fill: rgb(255, 255, 255);"></path><path class="watermark-path" d="M374.54,164.71a12.28,12.28,0,0,1,2.59,4.81,10.44,10.44,0,0,1,0,5,14.62,14.62,0,0,1-2.33,5,25.55,25.55,0,0,1-4.56,4.85,26.07,26.07,0,0,1-5.6,3.67,14.79,14.79,0,0,1-5.38,1.43,10.43,10.43,0,0,1-4.94-.89,13.24,13.24,0,0,1-6.87-8.18,10.48,10.48,0,0,1,0-5,14.51,14.51,0,0,1,2.36-5,25.23,25.23,0,0,1,4.57-4.89,25,25,0,0,1,5.59-3.64,14.45,14.45,0,0,1,5.35-1.43,10.31,10.31,0,0,1,4.93.92,12.22,12.22,0,0,1,4.28,3.38m-4.91,4.11a8.36,8.36,0,0,0-2-1.72,5.5,5.5,0,0,0-2.65-.85,7.72,7.72,0,0,0-3.32.57,14.49,14.49,0,0,0-4,2.52,16.72,16.72,0,0,0-2.38,2.4,10.15,10.15,0,0,0-1.39,2.24,6.71,6.71,0,0,0-.56,2.1,5.69,5.69,0,0,0,.1,1.9,6.21,6.21,0,0,0,.61,1.69,9.85,9.85,0,0,0,1,1.44,10.48,10.48,0,0,0,1.26,1.23,6.67,6.67,0,0,0,1.57.92,6.1,6.1,0,0,0,1.85.41,6.8,6.8,0,0,0,2.15-.2,11.06,11.06,0,0,0,2.45-1,17.67,17.67,0,0,0,2.77-1.94,14.39,14.39,0,0,0,3.18-3.52,7.74,7.74,0,0,0,1.14-3.17,5.54,5.54,0,0,0-.37-2.74,8.52,8.52,0,0,0-1.36-2.3" style="fill: rgb(255, 255, 255);"></path><path class="watermark-path" d="M382.66,141.76A32.3,32.3,0,0,1,388,138.1a34.12,34.12,0,0,1,5.15-2.35l3.69,4.4a19.62,19.62,0,0,0-2.37.6,22.08,22.08,0,0,0-2.61,1,26,26,0,0,0-2.77,1.49,23.9,23.9,0,0,0-2.8,2,21,21,0,0,0-2.8,2.78,13.19,13.19,0,0,0-1.64,2.51,7.29,7.29,0,0,0-.68,2.24,6.36,6.36,0,0,0,.06,2,5.8,5.8,0,0,0,.61,1.68,8.12,8.12,0,0,0,.93,1.38,9.16,9.16,0,0,0,1.08,1.08,6.56,6.56,0,0,0,1.48.9,6,6,0,0,0,1.87.48,6.76,6.76,0,0,0,2.28-.17,12,12,0,0,0,2.74-1.08,18.57,18.57,0,0,0,3.18-2.22c.58-.48,1.06-.92,1.46-1.31s.75-.77,1.05-1.12.57-.72.81-1.06l.73-1.09-1.82-2.17-5.45,4.57-3.3-3.94,10.3-8.65,7.71,9.19a29,29,0,0,1-1.67,2.43q-1,1.26-2.1,2.52c-.73.84-1.5,1.66-2.3,2.44s-1.57,1.5-2.33,2.14a31,31,0,0,1-3.59,2.61,22.15,22.15,0,0,1-3.64,1.83,15.56,15.56,0,0,1-3.62.89,11,11,0,0,1-3.49-.14,10.84,10.84,0,0,1-3.28-1.33,12.82,12.82,0,0,1-3-2.68,12.12,12.12,0,0,1-2.08-3.43A10.71,10.71,0,0,1,375,155a11.18,11.18,0,0,1,.51-3.51,15.51,15.51,0,0,1,1.57-3.43,21.44,21.44,0,0,1,2.42-3.28,30.19,30.19,0,0,1,3.14-3" style="fill: rgb(255, 255, 255);"></path><path class="watermark-path" d="M428.63,119.31a12.26,12.26,0,0,1,2.59,4.82,10.44,10.44,0,0,1,0,5,14.53,14.53,0,0,1-2.34,5,25.29,25.29,0,0,1-4.56,4.86,26,26,0,0,1-5.59,3.67,14.84,14.84,0,0,1-5.38,1.43,10.61,10.61,0,0,1-4.95-.89,12.15,12.15,0,0,1-4.3-3.37,12,12,0,0,1-2.56-4.81,10.48,10.48,0,0,1,0-5,14.39,14.39,0,0,1,2.35-5,27.89,27.89,0,0,1,10.16-8.53,14.49,14.49,0,0,1,5.36-1.43,10.27,10.27,0,0,1,4.92.92,12.21,12.21,0,0,1,4.28,3.37m-4.91,4.12a8.17,8.17,0,0,0-2-1.72,5.58,5.58,0,0,0-2.65-.86,7.86,7.86,0,0,0-3.31.58,14.49,14.49,0,0,0-4,2.52,16.21,16.21,0,0,0-2.38,2.4,9.85,9.85,0,0,0-1.4,2.24,7,7,0,0,0-.56,2.1,6,6,0,0,0,.1,1.9,6.23,6.23,0,0,0,.62,1.69,8.49,8.49,0,0,0,1,1.44,9.18,9.18,0,0,0,1.26,1.23,6.67,6.67,0,0,0,1.57.92,6,6,0,0,0,1.84.41,6.86,6.86,0,0,0,2.16-.2,11.26,11.26,0,0,0,2.45-1,17.62,17.62,0,0,0,2.76-1.94,14.67,14.67,0,0,0,3.19-3.52,7.71,7.71,0,0,0,1.13-3.17,5.53,5.53,0,0,0-.36-2.74,8.55,8.55,0,0,0-1.37-2.3" style="fill: rgb(255, 255, 255);"></path></g></svg>